# xmcd
#
# Track frame offsets:
#	150
#	13732
#	31722
#	45288
#	62816
#	86932
#	106181
#	121870
#	140668
#	159903
#	179139
#
# Disc length: 2657 seconds
# Revision: 0
# Processed by: cddbd v1.5.2PL0 Copyright (c) Steve Scherf et al.
# Submitted via: dBpowerAMP V12.0
#
DISCID=8b0a5f0b
DTITLE=Sherry Austin - Drive-By Romance
DYEAR=1900
DGENRE=Americana
TTITLE0=Learning
TTITLE1=I Laid in Bed All Afternoon
TTITLE2=Baby Blue Bonneville
TTITLE3=Sapphire Sky
TTITLE4=How's the Mustang Running
TTITLE5=Love's a Word I Never Throw Around
TTITLE6=Brike Down
TTITLE7=Hump Day Roses
TTITLE8=455 Rocket
TTITLE9=All I Can Give
TTITLE10=105
EXTD=
EXTT0=
EXTT1=
EXTT2=
EXTT3=
EXTT4=
EXTT5=
EXTT6=
EXTT7=
EXTT8=
EXTT9=
EXTT10=
PLAYORDER=
